Coordinates
version=1
nRows=8
nColumns=36
inDegrees=yes

Units are S.I. units (second, meters, Newtons, ...)
If the header above contains a line with 'inDegrees', this indicates whether rotational values are in degrees (yes) or radians (no).

endheader
time	pelvis_tilt	pelvis_list	pelvis_rotation	pelvis_tx	pelvis_ty	pelvis_tz	hip_flexion_r	hip_adduction_r	hip_rotation_r	knee_angle_r	knee_angle_r_beta	ankle_angle_r	subtalar_angle_r	mtp_angle_r	hip_flexion_l	hip_adduction_l	hip_rotation_l	knee_angle_l	knee_angle_l_beta	ankle_angle_l	subtalar_angle_l	mtp_angle_l	lumbar_extension	lumbar_bending	lumbar_rotation	arm_flex_r	arm_add_r	arm_rot_r	elbow_flex_r	pro_sup_r	arm_flex_l	arm_add_l	arm_rot_l	elbow_flex_l	pro_sup_l
      0.00000000	      6.49393001	     -5.94351989	      2.29535300	      0.71364891	      1.05474612	      0.87220499	     -3.08614139	      7.37678503	     -6.53316835	     11.47619198	      0.20029734	      6.30751591	     -6.12069712	     -7.01601014	     13.92167730	    -10.76085514	      0.86908202	     53.01307057	      0.92525263	      2.95443843	     -8.95540583	     -7.01601014	    -21.23600535	      9.87270748	      3.69293159	     10.56702712	    -14.25572087	      4.92760733	     25.45462388	     84.90199393	      3.46210813	     -5.50349431	     -0.38275286	     19.93401576	     79.53337476
      0.01666670	      5.77731956	     -5.98764728	      2.95042319	      0.71254661	      1.05193286	      0.87139177	     -3.65565656	      7.70788275	     -7.03940726	     10.68039839	      0.18640812	      7.00948745	     -4.43772234	     -7.03399595	     16.86761437	    -10.29450783	      1.49861458	     51.35972747	      0.89639635	      3.65160019	     -9.41896350	     -7.03399595	    -20.67240508	     10.07284565	      4.70101539	     10.01996047	    -14.53104543	      4.07330825	     25.79356830	     84.27726736	      3.51354707	     -5.20996660	     -0.53537741	     19.35311555	     79.56369965
      0.03333330	      6.46760769	     -5.14201408	      3.93935203	      0.70958263	      1.05169535	      0.86999156	     -6.11162966	      7.05342453	     -7.21745279	      9.51353332	      0.16604248	      7.81042962	     -3.89170056	     -7.08916782	     18.11023233	     -9.12835809	      1.65695264	     48.69860337	      0.84995097	      4.21721517	     -7.76229692	     -7.08916782	    -21.54378284	      9.61650554	      5.36312952	     10.06930997	    -14.57803594	      2.36437041	     26.47239761	     82.16046932	      3.85461141	     -5.11727963	     -0.63684282	     18.06947867	     79.24144671
      0.05000000	      6.26088644	     -4.29189115	      4.97506271	      0.70803199	      1.05039558	      0.86875812	     -7.83355203	      6.36635889	     -7.93035387	      8.22742181	      0.14359560	      9.77263496	     -2.40252572	     -7.09872552	     19.70394895	     -7.85834165	      1.56301108	     44.42196023	      0.77530947	      3.96069481	     -7.32858823	     -7.09872552	    -21.53909543	      9.24246758	      5.04299385	     10.51378063	    -14.61403285	      1.78489729	     27.09375076	     81.49573906	      3.24906545	     -5.11601942	     -1.51493246	     17.27840064	     78.72311904
      0.06666670	      5.57016178	     -3.65755712	      5.21525015	      0.70733834	      1.04771681	      0.86846661	     -9.02683620	      5.83769471	     -7.69909137	      7.32699512	      0.12788019	     11.16751642	     -2.36646818	     -7.09719069	     21.41974144	     -6.86802452	      1.05459128	     39.82341748	      0.69504975	      3.56201204	     -6.82056307	     -7.09719069	    -20.86784535	      8.80818783	      5.22076562	     10.89927281	    -14.68718656	      1.48376081	     27.83967594	     81.21230812	      2.05238472	     -5.21391479	     -2.07330057	     16.65213063	     78.42944959
      0.08333330	      5.25203068	     -3.04357791	      5.51706850	      0.70568701	      1.04459956	      0.86763011	    -10.72227319	      5.40099258	     -8.14296525	      6.23529150	      0.10882637	     11.88406992	     -1.81327650	     -7.09419916	     22.42283057	     -5.77502353	      0.89005792	     34.73548187	      0.60624853	      2.92946869	     -6.47545708	     -7.09419916	    -20.77698904	      8.37786639	      5.18630727	     10.77130273	    -14.70469818	     -0.18420642	     30.33387709	     78.45092855	      0.41583651	     -5.02845745	     -5.38004923	     17.20461589	     75.77218651
      0.10000000	      4.36129927	     -2.61611026	      5.76641762	      0.70353603	      1.04082723	      0.86660659	    -11.87749906	      5.22253423	     -8.37074159	      4.84060163	      0.08448444	     11.44207788	     -1.76796897	     -7.09751096	     23.80669250	     -4.77198019	      1.00691230	     29.33952025	      0.51207123	      2.77745046	     -5.62856700	     -7.09751096	    -19.90271662	      8.03414953	      4.88572776	     10.88474826	    -14.89700806	     -0.22423000	     32.01052503	     76.07500732	     -1.55776290	     -5.16263206	     -6.14435343	     17.57801076	     73.95082509
      0.11666670	      3.43026263	     -2.19183491	      5.97327180	      0.70258216	      1.03700655	      0.86579336	    -12.96064249	      5.07828854	     -8.42378399	      3.39684337	      0.05928610	     10.61434000	     -1.57749220	     -7.12231298	     25.01453392	     -3.77912741	      1.31164797	     23.73616095	      0.41427416	      3.42759442	     -4.26689269	     -7.12231298	    -19.00410362	      7.56386774	      4.42424750	     10.91722541	    -15.13888730	      0.13795113	     33.84824415	     73.49890628	     -3.57966526	     -5.47231063	     -5.59323503	     17.67383751	     72.02700165
